<svg width="1051" height="387" xmlns="http://www.w3.org/2000/svg" xmlns:xlink="http://www.w3.org/1999/xlink" overflow="hidden"><defs><clipPath id="clip0"><path d="M48 226 1099 226 1099 613 48 613Z" fill-rule="evenodd" clip-rule="evenodd"/></clipPath></defs><g clip-path="url(#clip0)" transform="translate(-48 -226)"><path d="M335.965 317.713 367.678 317.713 367.678 356.113 335.965 356.113Z" fill="#E8D19D" fill-rule="evenodd"/><path d="M367.678 317.713 399.391 317.713 399.391 356.113 367.678 356.113Z" fill="#DCE5EE" fill-rule="evenodd"/><path d="M399.391 317.713 431.104 317.713 431.104 356.113 399.391 356.113Z" fill="#F7F0DE" fill-rule="evenodd"/><path d="M335.965 356.113 367.678 356.113 367.678 394.513 335.965 394.513Z" fill="#94B6D2" fill-rule="evenodd"/><path d="M367.678 356.113 399.391 356.113 399.391 394.513 367.678 394.513Z" fill="#EFE0BE" fill-rule="evenodd"/><path d="M399.391 356.113 431.104 356.113 431.104 394.513 399.391 394.513Z" fill="#E8D19D" fill-rule="evenodd"/><path d="M335.965 394.513 367.678 394.513 367.678 432.913 335.965 432.913Z" fill="#D8B25C" fill-rule="evenodd"/><path d="M367.678 394.513 399.391 394.513 399.391 432.913 367.678 432.913Z" fill="#BFD3E4" fill-rule="evenodd"/><path d="M399.391 394.513 431.104 394.513 431.104 432.913 399.391 432.913Z" fill="#355D7E" fill-rule="evenodd"/><path d="M335.965 432.913 367.678 432.913 367.678 471.313 335.965 471.313Z" fill="#355D7E" fill-rule="evenodd"/><path d="M367.678 432.913 399.391 432.913 399.391 471.313 367.678 471.313Z" fill="#F7F0DE" fill-rule="evenodd"/><path d="M399.391 432.913 431.104 432.913 431.104 471.313 399.391 471.313Z" fill="#558BB8" fill-rule="evenodd"/><path d="M335.965 471.313 367.678 471.313 367.678 509.713 335.965 509.713Z" fill="#D8B25C" fill-rule="evenodd"/><path d="M367.678 471.313 399.391 471.313 399.391 509.713 367.678 509.713Z" fill="#BFD3E4" fill-rule="evenodd"/><path d="M399.391 471.313 431.104 471.313 431.104 509.713 399.391 509.713Z" fill="#EFE0BE" fill-rule="evenodd"/><path d="M367.678 317.046 367.678 510.379" stroke="#FFFFFF" stroke-width="1.33333" stroke-linejoin="round" stroke-miterlimit="10" fill="none" fill-rule="evenodd"/><path d="M399.391 317.046 399.391 510.379" stroke="#FFFFFF" stroke-width="1.33333" stroke-linejoin="round" stroke-miterlimit="10" fill="none" fill-rule="evenodd"/><path d="M335.298 356.113 431.771 356.113" stroke="#FFFFFF" stroke-width="1.33333" stroke-linejoin="round" stroke-miterlimit="10" fill="none" fill-rule="evenodd"/><path d="M335.298 394.513 431.771 394.513" stroke="#FFFFFF" stroke-width="1.33333" stroke-linejoin="round" stroke-miterlimit="10" fill="none" fill-rule="evenodd"/><path d="M335.298 432.913 431.771 432.913" stroke="#FFFFFF" stroke-width="1.33333" stroke-linejoin="round" stroke-miterlimit="10" fill="none" fill-rule="evenodd"/><path d="M335.298 471.313 431.771 471.313" stroke="#FFFFFF" stroke-width="1.33333" stroke-linejoin="round" stroke-miterlimit="10" fill="none" fill-rule="evenodd"/><path d="M335.965 317.046 335.965 510.379" stroke="#FFFFFF" stroke-width="1.33333" stroke-linejoin="round" stroke-miterlimit="10" fill="none" fill-rule="evenodd"/><path d="M431.104 317.046 431.104 510.379" stroke="#FFFFFF" stroke-width="1.33333" stroke-linejoin="round" stroke-miterlimit="10" fill="none" fill-rule="evenodd"/><path d="M335.298 317.713 431.771 317.713" stroke="#FFFFFF" stroke-width="1.33333" stroke-linejoin="round" stroke-miterlimit="10" fill="none" fill-rule="evenodd"/><path d="M335.298 509.713 431.771 509.713" stroke="#FFFFFF" stroke-width="1.33333" stroke-linejoin="round" stroke-miterlimit="10" fill="none" fill-rule="evenodd"/><rect x="556" y="357" width="14" height="149" fill="#DB5217"/><rect x="588" y="420" width="15" height="86" fill="#21957C"/><rect x="622" y="376" width="15" height="130" fill="#EC001F"/><path d="M348 308C348 304.134 350.462 301 353.5 301 356.538 301 359 304.134 359 308 359 311.866 356.538 315 353.5 315 350.462 315 348 311.866 348 308Z" fill="#DB5217" fill-rule="evenodd"/><path d="M378 308C378 304.134 380.462 301 383.5 301 386.538 301 389 304.134 389 308 389 311.866 386.538 315 383.5 315 380.462 315 378 311.866 378 308Z" fill="#21957C" fill-rule="evenodd"/><path d="M410 308C410 304.134 412.462 301 415.5 301 418.538 301 421 304.134 421 308 421 311.866 418.538 315 415.5 315 412.462 315 410 311.866 410 308Z" fill="#EC001F" fill-rule="evenodd"/><path d="M0.333333-1.83493e-07 0.333435 184.052-0.333232 184.052-0.333333 1.83493e-07ZM4.0001 182.719 0.000104987 190.719-3.9999 182.719Z" transform="matrix(1 0 0 -1 521.5 506.219)"/><path d="M1.10379e-06-0.333333 120.153-0.332935 120.153 0.333731-1.10379e-06 0.333333ZM118.819-3.99961 126.819 0.000419947 118.819 4.00039Z" transform="matrix(1 0 0 -1 521.5 506.5)"/><path d="M465.481 409.078 468.567 405.529 473 409.383 477.433 405.529 480.519 409.078 476.584 412.5 480.519 415.922 477.433 419.471 473 415.617 468.567 419.471 465.481 415.922 469.416 412.5Z" stroke="#000000" stroke-width="1.33333" stroke-miterlimit="8" fill-rule="evenodd"/><text font-family="Arial,Arial_MSFontService,sans-serif" font-weight="400" font-size="21" transform="translate(89.7189 264)">Bulk tissue <tspan x="0" y="25">expression</tspan></text><path d="M249.609 412.032 272.391 412.032 272.391 417.206 249.609 417.206ZM249.609 419.794 272.391 419.794 272.391 424.968 249.609 424.968Z" stroke="#000000" stroke-width="1.33333" stroke-miterlimit="8" fill-rule="evenodd"/><path d="M87.2957 315.993 109.162 315.993 109.162 354.393 87.2957 354.393Z" fill="#7F7F7F" fill-rule="evenodd"/><path d="M109.162 315.993 131.029 315.993 131.029 354.393 109.162 354.393Z" fill="#7F7F7F" fill-rule="evenodd"/><path d="M131.029 315.993 152.896 315.993 152.896 354.393 131.029 354.393Z" fill="#7F7F7F" fill-rule="evenodd"/><path d="M152.896 315.993 174.762 315.993 174.762 354.393 152.896 354.393Z" fill="#7F7F7F" fill-rule="evenodd"/><path d="M174.762 315.993 196.629 315.993 196.629 354.393 174.762 354.393Z" fill="#7F7F7F" fill-rule="evenodd"/><path d="M87.2957 354.393 109.162 354.393 109.162 392.793 87.2957 392.793Z" fill="#7F7F7F" fill-rule="evenodd"/><path d="M109.162 354.393 131.029 354.393 131.029 392.793 109.162 392.793Z" fill="#7F7F7F" fill-rule="evenodd"/><path d="M131.029 354.393 152.896 354.393 152.896 392.793 131.029 392.793Z" fill="#7F7F7F" fill-rule="evenodd"/><path d="M152.896 354.393 174.762 354.393 174.762 392.793 152.896 392.793Z" fill="#7F7F7F" fill-rule="evenodd"/><path d="M174.762 354.393 196.629 354.393 196.629 392.793 174.762 392.793Z" fill="#7F7F7F" fill-rule="evenodd"/><path d="M87.2957 392.793 109.162 392.793 109.162 431.193 87.2957 431.193Z" fill="#7F7F7F" fill-rule="evenodd"/><path d="M109.162 392.793 131.029 392.793 131.029 431.193 109.162 431.193Z" fill="#7F7F7F" fill-rule="evenodd"/><path d="M131.029 392.793 152.896 392.793 152.896 431.193 131.029 431.193Z" fill="#7F7F7F" fill-rule="evenodd"/><path d="M152.896 392.793 174.762 392.793 174.762 431.193 152.896 431.193Z" fill="#7F7F7F" fill-rule="evenodd"/><path d="M174.762 392.793 196.629 392.793 196.629 431.193 174.762 431.193Z" fill="#7F7F7F" fill-rule="evenodd"/><path d="M87.2957 431.193 109.162 431.193 109.162 469.593 87.2957 469.593Z" fill="#7F7F7F" fill-rule="evenodd"/><path d="M109.162 431.193 131.029 431.193 131.029 469.593 109.162 469.593Z" fill="#7F7F7F" fill-rule="evenodd"/><path d="M131.029 431.193 152.896 431.193 152.896 469.593 131.029 469.593Z" fill="#7F7F7F" fill-rule="evenodd"/><path d="M152.896 431.193 174.762 431.193 174.762 469.593 152.896 469.593Z" fill="#7F7F7F" fill-rule="evenodd"/><path d="M174.762 431.193 196.629 431.193 196.629 469.593 174.762 469.593Z" fill="#7F7F7F" fill-rule="evenodd"/><path d="M87.2957 469.593 109.162 469.593 109.162 507.993 87.2957 507.993Z" fill="#7F7F7F" fill-rule="evenodd"/><path d="M109.162 469.593 131.029 469.593 131.029 507.993 109.162 507.993Z" fill="#7F7F7F" fill-rule="evenodd"/><path d="M131.029 469.593 152.896 469.593 152.896 507.993 131.029 507.993Z" fill="#7F7F7F" fill-rule="evenodd"/><path d="M152.896 469.593 174.762 469.593 174.762 507.993 152.896 507.993Z" fill="#7F7F7F" fill-rule="evenodd"/><path d="M174.762 469.593 196.629 469.593 196.629 507.993 174.762 507.993Z" fill="#7F7F7F" fill-rule="evenodd"/><path d="M109.162 315.327 109.162 508.66" stroke="#FFFFFF" stroke-width="1.33333" stroke-linejoin="round" stroke-miterlimit="10" fill="none" fill-rule="evenodd"/><path d="M131.029 315.327 131.029 508.66" stroke="#FFFFFF" stroke-width="1.33333" stroke-linejoin="round" stroke-miterlimit="10" fill="none" fill-rule="evenodd"/><path d="M152.896 315.327 152.896 508.66" stroke="#FFFFFF" stroke-width="1.33333" stroke-linejoin="round" stroke-miterlimit="10" fill="none" fill-rule="evenodd"/><path d="M174.762 315.327 174.762 508.66" stroke="#FFFFFF" stroke-width="1.33333" stroke-linejoin="round" stroke-miterlimit="10" fill="none" fill-rule="evenodd"/><path d="M86.6291 354.393 197.296 354.393" stroke="#FFFFFF" stroke-width="1.33333" stroke-linejoin="round" stroke-miterlimit="10" fill="none" fill-rule="evenodd"/><path d="M86.6291 392.793 197.296 392.793" stroke="#FFFFFF" stroke-width="1.33333" stroke-linejoin="round" stroke-miterlimit="10" fill="none" fill-rule="evenodd"/><path d="M86.6291 431.193 197.296 431.193" stroke="#FFFFFF" stroke-width="1.33333" stroke-linejoin="round" stroke-miterlimit="10" fill="none" fill-rule="evenodd"/><path d="M86.6291 469.593 197.296 469.593" stroke="#FFFFFF" stroke-width="1.33333" stroke-linejoin="round" stroke-miterlimit="10" fill="none" fill-rule="evenodd"/><path d="M87.2957 315.327 87.2957 508.66" stroke="#FFFFFF" stroke-width="1.33333" stroke-linejoin="round" stroke-miterlimit="10" fill="none" fill-rule="evenodd"/><path d="M196.629 315.327 196.629 508.66" stroke="#FFFFFF" stroke-width="1.33333" stroke-linejoin="round" stroke-miterlimit="10" fill="none" fill-rule="evenodd"/><path d="M86.6291 315.993 197.296 315.993" stroke="#FFFFFF" stroke-width="1.33333" stroke-linejoin="round" stroke-miterlimit="10" fill="none" fill-rule="evenodd"/><path d="M86.6291 507.993 197.296 507.993" stroke="#FFFFFF" stroke-width="1.33333" stroke-linejoin="round" stroke-miterlimit="10" fill="none" fill-rule="evenodd"/><path d="M821.669 325.102 843.536 325.102 843.536 363.502 821.669 363.502Z" fill="#DB5217" fill-rule="evenodd"/><path d="M843.536 325.102 865.403 325.102 865.403 363.502 843.536 363.502Z" fill="#DB5217" fill-rule="evenodd"/><path d="M865.403 325.102 887.269 325.102 887.269 363.502 865.403 363.502Z" fill="#DB5217" fill-rule="evenodd"/><path d="M887.269 325.102 909.136 325.102 909.136 363.502 887.269 363.502Z" fill="#DB5217" fill-rule="evenodd"/><path d="M909.136 325.102 931.003 325.102 931.003 363.502 909.136 363.502Z" fill="#DB5217" fill-rule="evenodd"/><path d="M821.669 363.502 843.536 363.502 843.536 401.902 821.669 401.902Z" fill="#DB5217" fill-rule="evenodd"/><path d="M843.536 363.502 865.403 363.502 865.403 401.902 843.536 401.902Z" fill="#DB5217" fill-rule="evenodd"/><path d="M865.403 363.502 887.269 363.502 887.269 401.902 865.403 401.902Z" fill="#DB5217" fill-rule="evenodd"/><path d="M887.269 363.502 909.136 363.502 909.136 401.902 887.269 401.902Z" fill="#DB5217" fill-rule="evenodd"/><path d="M909.136 363.502 931.003 363.502 931.003 401.902 909.136 401.902Z" fill="#DB5217" fill-rule="evenodd"/><path d="M821.669 401.902 843.536 401.902 843.536 440.302 821.669 440.302Z" fill="#DB5217" fill-rule="evenodd"/><path d="M843.536 401.902 865.403 401.902 865.403 440.302 843.536 440.302Z" fill="#DB5217" fill-rule="evenodd"/><path d="M865.403 401.902 887.269 401.902 887.269 440.302 865.403 440.302Z" fill="#DB5217" fill-rule="evenodd"/><path d="M887.269 401.902 909.136 401.902 909.136 440.302 887.269 440.302Z" fill="#DB5217" fill-rule="evenodd"/><path d="M909.136 401.902 931.003 401.902 931.003 440.302 909.136 440.302Z" fill="#DB5217" fill-rule="evenodd"/><path d="M821.669 440.302 843.536 440.302 843.536 478.702 821.669 478.702Z" fill="#DB5217" fill-rule="evenodd"/><path d="M843.536 440.302 865.403 440.302 865.403 478.702 843.536 478.702Z" fill="#DB5217" fill-rule="evenodd"/><path d="M865.403 440.302 887.269 440.302 887.269 478.702 865.403 478.702Z" fill="#DB5217" fill-rule="evenodd"/><path d="M887.269 440.302 909.136 440.302 909.136 478.702 887.269 478.702Z" fill="#DB5217" fill-rule="evenodd"/><path d="M909.136 440.302 931.003 440.302 931.003 478.702 909.136 478.702Z" fill="#DB5217" fill-rule="evenodd"/><path d="M821.669 478.702 843.536 478.702 843.536 517.102 821.669 517.102Z" fill="#DB5217" fill-rule="evenodd"/><path d="M843.536 478.702 865.403 478.702 865.403 517.102 843.536 517.102Z" fill="#DB5217" fill-rule="evenodd"/><path d="M865.403 478.702 887.269 478.702 887.269 517.102 865.403 517.102Z" fill="#DB5217" fill-rule="evenodd"/><path d="M887.269 478.702 909.136 478.702 909.136 517.102 887.269 517.102Z" fill="#DB5217" fill-rule="evenodd"/><path d="M909.136 478.702 931.003 478.702 931.003 517.102 909.136 517.102Z" fill="#DB5217" fill-rule="evenodd"/><path d="M843.536 324.435 843.536 517.768" stroke="#FFFFFF" stroke-width="1.33333" stroke-linejoin="round" stroke-miterlimit="10" fill="none" fill-rule="evenodd"/><path d="M865.403 324.435 865.403 517.768" stroke="#FFFFFF" stroke-width="1.33333" stroke-linejoin="round" stroke-miterlimit="10" fill="none" fill-rule="evenodd"/><path d="M887.269 324.435 887.269 517.768" stroke="#FFFFFF" stroke-width="1.33333" stroke-linejoin="round" stroke-miterlimit="10" fill="none" fill-rule="evenodd"/><path d="M909.136 324.435 909.136 517.768" stroke="#FFFFFF" stroke-width="1.33333" stroke-linejoin="round" stroke-miterlimit="10" fill="none" fill-rule="evenodd"/><path d="M821.003 363.502 931.669 363.502" stroke="#FFFFFF" stroke-width="1.33333" stroke-linejoin="round" stroke-miterlimit="10" fill="none" fill-rule="evenodd"/><path d="M821.003 401.902 931.669 401.902" stroke="#FFFFFF" stroke-width="1.33333" stroke-linejoin="round" stroke-miterlimit="10" fill="none" fill-rule="evenodd"/><path d="M821.003 440.302 931.669 440.302" stroke="#FFFFFF" stroke-width="1.33333" stroke-linejoin="round" stroke-miterlimit="10" fill="none" fill-rule="evenodd"/><path d="M821.003 478.702 931.669 478.702" stroke="#FFFFFF" stroke-width="1.33333" stroke-linejoin="round" stroke-miterlimit="10" fill="none" fill-rule="evenodd"/><path d="M821.669 324.435 821.669 517.768" stroke="#FFFFFF" stroke-width="1.33333" stroke-linejoin="round" stroke-miterlimit="10" fill="none" fill-rule="evenodd"/><path d="M931.003 324.435 931.003 517.768" stroke="#FFFFFF" stroke-width="1.33333" stroke-linejoin="round" stroke-miterlimit="10" fill="none" fill-rule="evenodd"/><path d="M821.003 325.102 931.669 325.102" stroke="#FFFFFF" stroke-width="1.33333" stroke-linejoin="round" stroke-miterlimit="10" fill="none" fill-rule="evenodd"/><path d="M821.003 517.102 931.669 517.102" stroke="#FFFFFF" stroke-width="1.33333" stroke-linejoin="round" stroke-miterlimit="10" fill="none" fill-rule="evenodd"/><path d="M848.509 306.987 870.375 306.987 870.375 345.387 848.509 345.387Z" fill="#21957C" fill-rule="evenodd"/><path d="M870.375 306.987 892.242 306.987 892.242 345.387 870.375 345.387Z" fill="#21957C" fill-rule="evenodd"/><path d="M892.242 306.987 914.109 306.987 914.109 345.387 892.242 345.387Z" fill="#21957C" fill-rule="evenodd"/><path d="M914.109 306.987 935.976 306.987 935.976 345.387 914.109 345.387Z" fill="#21957C" fill-rule="evenodd"/><path d="M935.976 306.987 957.842 306.987 957.842 345.387 935.976 345.387Z" fill="#21957C" fill-rule="evenodd"/><path d="M848.509 345.387 870.375 345.387 870.375 383.787 848.509 383.787Z" fill="#21957C" fill-rule="evenodd"/><path d="M870.375 345.387 892.242 345.387 892.242 383.787 870.375 383.787Z" fill="#21957C" fill-rule="evenodd"/><path d="M892.242 345.387 914.109 345.387 914.109 383.787 892.242 383.787Z" fill="#21957C" fill-rule="evenodd"/><path d="M914.109 345.387 935.976 345.387 935.976 383.787 914.109 383.787Z" fill="#21957C" fill-rule="evenodd"/><path d="M935.976 345.387 957.842 345.387 957.842 383.787 935.976 383.787Z" fill="#21957C" fill-rule="evenodd"/><path d="M848.509 383.787 870.375 383.787 870.375 422.187 848.509 422.187Z" fill="#21957C" fill-rule="evenodd"/><path d="M870.375 383.787 892.242 383.787 892.242 422.187 870.375 422.187Z" fill="#21957C" fill-rule="evenodd"/><path d="M892.242 383.787 914.109 383.787 914.109 422.187 892.242 422.187Z" fill="#21957C" fill-rule="evenodd"/><path d="M914.109 383.787 935.976 383.787 935.976 422.187 914.109 422.187Z" fill="#21957C" fill-rule="evenodd"/><path d="M935.976 383.787 957.842 383.787 957.842 422.187 935.976 422.187Z" fill="#21957C" fill-rule="evenodd"/><path d="M848.509 422.187 870.375 422.187 870.375 460.587 848.509 460.587Z" fill="#21957C" fill-rule="evenodd"/><path d="M870.375 422.187 892.242 422.187 892.242 460.587 870.375 460.587Z" fill="#21957C" fill-rule="evenodd"/><path d="M892.242 422.187 914.109 422.187 914.109 460.587 892.242 460.587Z" fill="#21957C" fill-rule="evenodd"/><path d="M914.109 422.187 935.976 422.187 935.976 460.587 914.109 460.587Z" fill="#21957C" fill-rule="evenodd"/><path d="M935.976 422.187 957.842 422.187 957.842 460.587 935.976 460.587Z" fill="#21957C" fill-rule="evenodd"/><path d="M848.509 460.587 870.375 460.587 870.375 498.987 848.509 498.987Z" fill="#21957C" fill-rule="evenodd"/><path d="M870.375 460.587 892.242 460.587 892.242 498.987 870.375 498.987Z" fill="#21957C" fill-rule="evenodd"/><path d="M892.242 460.587 914.109 460.587 914.109 498.987 892.242 498.987Z" fill="#21957C" fill-rule="evenodd"/><path d="M914.109 460.587 935.976 460.587 935.976 498.987 914.109 498.987Z" fill="#21957C" fill-rule="evenodd"/><path d="M935.976 460.587 957.842 460.587 957.842 498.987 935.976 498.987Z" fill="#21957C" fill-rule="evenodd"/><path d="M870.375 306.321 870.375 499.654" stroke="#FFFFFF" stroke-width="1.33333" stroke-linejoin="round" stroke-miterlimit="10" fill="none" fill-rule="evenodd"/><path d="M892.242 306.321 892.242 499.654" stroke="#FFFFFF" stroke-width="1.33333" stroke-linejoin="round" stroke-miterlimit="10" fill="none" fill-rule="evenodd"/><path d="M914.109 306.321 914.109 499.654" stroke="#FFFFFF" stroke-width="1.33333" stroke-linejoin="round" stroke-miterlimit="10" fill="none" fill-rule="evenodd"/><path d="M935.976 306.321 935.976 499.654" stroke="#FFFFFF" stroke-width="1.33333" stroke-linejoin="round" stroke-miterlimit="10" fill="none" fill-rule="evenodd"/><path d="M847.842 345.387 958.509 345.387" stroke="#FFFFFF" stroke-width="1.33333" stroke-linejoin="round" stroke-miterlimit="10" fill="none" fill-rule="evenodd"/><path d="M847.842 383.787 958.509 383.787" stroke="#FFFFFF" stroke-width="1.33333" stroke-linejoin="round" stroke-miterlimit="10" fill="none" fill-rule="evenodd"/><path d="M847.842 422.187 958.509 422.187" stroke="#FFFFFF" stroke-width="1.33333" stroke-linejoin="round" stroke-miterlimit="10" fill="none" fill-rule="evenodd"/><path d="M847.842 460.587 958.509 460.587" stroke="#FFFFFF" stroke-width="1.33333" stroke-linejoin="round" stroke-miterlimit="10" fill="none" fill-rule="evenodd"/><path d="M848.509 306.321 848.509 499.654" stroke="#FFFFFF" stroke-width="1.33333" stroke-linejoin="round" stroke-miterlimit="10" fill="none" fill-rule="evenodd"/><path d="M957.842 306.321 957.842 499.654" stroke="#FFFFFF" stroke-width="1.33333" stroke-linejoin="round" stroke-miterlimit="10" fill="none" fill-rule="evenodd"/><path d="M847.842 306.987 958.509 306.987" stroke="#FFFFFF" stroke-width="1.33333" stroke-linejoin="round" stroke-miterlimit="10" fill="none" fill-rule="evenodd"/><path d="M847.842 498.987 958.509 498.987" stroke="#FFFFFF" stroke-width="1.33333" stroke-linejoin="round" stroke-miterlimit="10" fill="none" fill-rule="evenodd"/><path d="M888.772 299.888 910.638 299.888 910.638 338.288 888.772 338.288Z" fill="#EC001F" fill-rule="evenodd"/><path d="M910.638 299.888 932.505 299.888 932.505 338.288 910.638 338.288Z" fill="#EC001F" fill-rule="evenodd"/><path d="M932.505 299.888 954.372 299.888 954.372 338.288 932.505 338.288Z" fill="#EC001F" fill-rule="evenodd"/><path d="M954.372 299.888 976.238 299.888 976.238 338.288 954.372 338.288Z" fill="#EC001F" fill-rule="evenodd"/><path d="M976.238 299.888 998.105 299.888 998.105 338.288 976.238 338.288Z" fill="#EC001F" fill-rule="evenodd"/><path d="M888.772 338.288 910.638 338.288 910.638 376.688 888.772 376.688Z" fill="#EC001F" fill-rule="evenodd"/><path d="M910.638 338.288 932.505 338.288 932.505 376.688 910.638 376.688Z" fill="#EC001F" fill-rule="evenodd"/><path d="M932.505 338.288 954.372 338.288 954.372 376.688 932.505 376.688Z" fill="#EC001F" fill-rule="evenodd"/><path d="M954.372 338.288 976.238 338.288 976.238 376.688 954.372 376.688Z" fill="#EC001F" fill-rule="evenodd"/><path d="M976.238 338.288 998.105 338.288 998.105 376.688 976.238 376.688Z" fill="#EC001F" fill-rule="evenodd"/><path d="M888.772 376.688 910.638 376.688 910.638 415.088 888.772 415.088Z" fill="#EC001F" fill-rule="evenodd"/><path d="M910.638 376.688 932.505 376.688 932.505 415.088 910.638 415.088Z" fill="#EC001F" fill-rule="evenodd"/><path d="M932.505 376.688 954.372 376.688 954.372 415.088 932.505 415.088Z" fill="#EC001F" fill-rule="evenodd"/><path d="M954.372 376.688 976.238 376.688 976.238 415.088 954.372 415.088Z" fill="#EC001F" fill-rule="evenodd"/><path d="M976.238 376.688 998.105 376.688 998.105 415.088 976.238 415.088Z" fill="#EC001F" fill-rule="evenodd"/><path d="M888.772 415.088 910.638 415.088 910.638 453.488 888.772 453.488Z" fill="#EC001F" fill-rule="evenodd"/><path d="M910.638 415.088 932.505 415.088 932.505 453.488 910.638 453.488Z" fill="#EC001F" fill-rule="evenodd"/><path d="M932.505 415.088 954.372 415.088 954.372 453.488 932.505 453.488Z" fill="#EC001F" fill-rule="evenodd"/><path d="M954.372 415.088 976.238 415.088 976.238 453.488 954.372 453.488Z" fill="#EC001F" fill-rule="evenodd"/><path d="M976.238 415.088 998.105 415.088 998.105 453.488 976.238 453.488Z" fill="#EC001F" fill-rule="evenodd"/><path d="M888.772 453.488 910.638 453.488 910.638 491.888 888.772 491.888Z" fill="#EC001F" fill-rule="evenodd"/><path d="M910.638 453.488 932.505 453.488 932.505 491.888 910.638 491.888Z" fill="#EC001F" fill-rule="evenodd"/><path d="M932.505 453.488 954.372 453.488 954.372 491.888 932.505 491.888Z" fill="#EC001F" fill-rule="evenodd"/><path d="M954.372 453.488 976.238 453.488 976.238 491.888 954.372 491.888Z" fill="#EC001F" fill-rule="evenodd"/><path d="M976.238 453.488 998.105 453.488 998.105 491.888 976.238 491.888Z" fill="#EC001F" fill-rule="evenodd"/><path d="M910.638 299.221 910.638 492.555" stroke="#FFFFFF" stroke-width="1.33333" stroke-linejoin="round" stroke-miterlimit="10" fill="none" fill-rule="evenodd"/><path d="M932.505 299.221 932.505 492.555" stroke="#FFFFFF" stroke-width="1.33333" stroke-linejoin="round" stroke-miterlimit="10" fill="none" fill-rule="evenodd"/><path d="M954.372 299.221 954.372 492.555" stroke="#FFFFFF" stroke-width="1.33333" stroke-linejoin="round" stroke-miterlimit="10" fill="none" fill-rule="evenodd"/><path d="M976.238 299.221 976.238 492.555" stroke="#FFFFFF" stroke-width="1.33333" stroke-linejoin="round" stroke-miterlimit="10" fill="none" fill-rule="evenodd"/><path d="M888.105 338.288 998.772 338.288" stroke="#FFFFFF" stroke-width="1.33333" stroke-linejoin="round" stroke-miterlimit="10" fill="none" fill-rule="evenodd"/><path d="M888.105 376.688 998.772 376.688" stroke="#FFFFFF" stroke-width="1.33333" stroke-linejoin="round" stroke-miterlimit="10" fill="none" fill-rule="evenodd"/><path d="M888.105 415.088 998.772 415.088" stroke="#FFFFFF" stroke-width="1.33333" stroke-linejoin="round" stroke-miterlimit="10" fill="none" fill-rule="evenodd"/><path d="M888.105 453.488 998.772 453.488" stroke="#FFFFFF" stroke-width="1.33333" stroke-linejoin="round" stroke-miterlimit="10" fill="none" fill-rule="evenodd"/><path d="M888.772 299.221 888.772 492.555" stroke="#FFFFFF" stroke-width="1.33333" stroke-linejoin="round" stroke-miterlimit="10" fill="none" fill-rule="evenodd"/><path d="M998.105 299.221 998.105 492.555" stroke="#FFFFFF" stroke-width="1.33333" stroke-linejoin="round" stroke-miterlimit="10" fill="none" fill-rule="evenodd"/><path d="M888.105 299.888 998.772 299.888" stroke="#FFFFFF" stroke-width="1.33333" stroke-linejoin="round" stroke-miterlimit="10" fill="none" fill-rule="evenodd"/><path d="M888.105 491.888 998.772 491.888" stroke="#FFFFFF" stroke-width="1.33333" stroke-linejoin="round" stroke-miterlimit="10" fill="none" fill-rule="evenodd"/><text font-family="Arial,Arial_MSFontService,sans-serif" font-weight="400" font-size="21" transform="matrix(-1.83697e-16 -1 1 -1.83697e-16 78.4651 439)">Genes</text><text font-family="Arial,Arial_MSFontService,sans-serif" font-weight="400" font-size="21" transform="translate(107.526 538)">Samples<tspan x="183.824" y="-283">Averaged cell group</tspan><tspan x="372.937" y="-283">-</tspan><tspan x="183.824" y="-258">specific expression </tspan><tspan x="430.641" y="-246">Cell</tspan>-<tspan x="474.307" y="-246">group </tspan><tspan x="430.641" y="-221">proportions </tspan><tspan x="687.227" y="-283">Cell group</tspan>-<tspan x="791.394" y="-283">specific expression </tspan><tspan x="681.227" y="-258">per individual</tspan></text><text font-family="Arial,Arial_MSFontService,sans-serif" font-weight="400" font-size="21" transform="matrix(-1.83697e-16 -1 1 -1.83697e-16 812.555 443)">Genes</text><text font-family="Arial,Arial_MSFontService,sans-serif" font-weight="400" font-size="21" transform="translate(886.945 545)">Samples</text><text font-family="Arial,Arial_MSFontService,sans-serif" font-weight="400" font-size="21" transform="matrix(0.670266 -0.742121 0.742121 0.670266 344.56 588)">Group B<tspan x="-13.2916" y="-25.1601">Group A</tspan><tspan x="16.6641" y="22.9263">Group C</tspan></text><path d="M690.5 405.5 751.5 405.5 751.5 398.5 765.5 412.5 751.5 426.5 751.5 419.5 690.5 419.5Z" stroke="#000000" stroke-width="1.33333" stroke-miterlimit="8" fill-rule="evenodd"/><text font-family="Arial,Arial_MSFontService,sans-serif" font-weight="400" font-size="21" transform="translate(685.903 391)">swCAM</text></g></svg>